<?xml version="1.0" encoding="iso-8859-1"?>
<!-- Generator: Adobe Illustrator 19.0.0, SVG Export Plug-In . SVG Version: 6.00 Build 0)  -->
<svg version="1.1" id="Capa_1" xmlns="http://www.w3.org/2000/svg" xmlns:xlink="http://www.w3.org/1999/xlink" x="0px" y="0px"
	 viewBox="0 0 512 512" style="enable-background:new 0 0 512 512;" xml:space="preserve">
<g>
	<g>
		<path d="M430.098,64.633C389.163,22.954,334.45,0,276.04,0c-57.675,0-111.898,22.46-152.679,63.242
			c-40.362,40.362-62.777,93.883-63.234,150.892l-39.292,78.584c-1.756,3.512-0.512,7.784,2.855,9.804l36.43,21.858V440.36
			c0,4.15,3.365,7.515,7.515,7.515h72.642v56.611c0,4.15,3.365,7.515,7.515,7.515c4.15,0,7.515-3.365,7.515-7.515V440.36
			c-0.001-4.15-3.366-7.515-7.516-7.515H75.147v-112.72c0-2.639-1.385-5.086-3.648-6.444l-34.112-20.467l36.966-73.932
			c0.522-1.044,0.794-2.193,0.794-3.361c0-110.772,90.12-200.892,200.892-200.892c54.345,0,105.25,21.356,143.336,60.134
			c2.908,2.963,7.666,3.002,10.627,0.096C432.963,72.351,433.005,67.594,430.098,64.633z"/>
	</g>
</g>
<g>
	<g>
		<path d="M452.601,91.601c-2.393-3.392-7.082-4.2-10.472-1.81c-3.392,2.393-4.201,7.081-1.81,10.472
			c23.952,33.956,36.612,73.949,36.612,115.657c0,62.247-28.164,119.964-77.27,158.356c-1.822,1.424-2.887,3.608-2.887,5.921
			v124.288c0,4.15,3.364,7.515,7.515,7.515s7.515-3.365,7.515-7.515V383.824c50.992-41.247,80.157-102.228,80.157-167.902
			C491.961,171.095,478.351,128.106,452.601,91.601z"/>
	</g>
</g>
<g>
	<g>
		<path d="M393.541,130.596c-2.32-19.523-11.156-37.599-24.879-50.9c-21.638-20.973-59.076-31.833-100.639-1.484
			c-41.562-30.35-79.001-19.488-100.639,1.484c-13.723,13.301-22.558,31.377-24.877,50.9c-2.471,20.805,2.963,41.321,15.301,57.772
			c41.373,55.163,88.078,81.202,102.701,88.434v195.621c0,4.15,3.364,7.515,7.515,7.515s7.515-3.365,7.515-7.515V276.802
			c14.623-7.232,61.328-33.271,102.701-88.434C390.577,171.918,396.012,151.401,393.541,130.596z M366.216,179.35
			c-40.015,53.353-86.2,78.46-98.192,84.374c-12.003-5.921-58.183-31.028-98.192-84.374c-22.046-29.394-13.238-68.264,8.014-88.863
			c11.044-10.704,24.101-16.035,38.042-16.035c15.25,0,31.559,6.38,47.442,19.086c2.745,2.195,6.644,2.195,9.389,0
			c30.404-24.324,62.36-25.463,85.484-3.051C379.454,111.086,388.261,149.956,366.216,179.35z"/>
	</g>
</g>
<g>
	<g>
		<path d="M362.72,319.681c-0.552-3.101-2.98-5.53-6.081-6.081c-20.492-3.648-41.497,2.944-56.186,17.633c-0.001,0-0.001,0-0.001,0
			c-14.688,14.689-21.279,35.693-17.632,56.186c0.51,2.869,2.704,5.236,5.525,5.961c3.739,0.961,7.889,1.108,11.73,1.108
			c16.74,0,32.992-6.598,45.013-18.62C359.777,361.179,366.369,340.175,362.72,319.681z M334.46,365.24
			c-9.923,9.924-23.635,15.016-37.498,14.119c-0.889-13.871,4.195-27.575,14.118-37.498c9.923-9.923,23.621-15.007,37.499-14.119
			C349.468,341.613,344.384,355.317,334.46,365.24z"/>
	</g>
</g>
<g>
	<g>
		<path d="M235.594,331.233c-14.69-14.689-35.693-21.283-56.186-17.632c-3.101,0.552-5.53,2.98-6.081,6.081
			c-3.648,20.493,2.944,41.498,17.633,56.187c12.023,12.022,28.273,18.62,45.014,18.62c3.839,0,7.991-0.147,11.728-1.108
			c2.821-0.724,5.015-3.093,5.525-5.961C256.875,366.927,250.283,345.922,235.594,331.233z M239.085,379.359
			c-13.868,0.892-27.575-4.194-37.498-14.119s-15.007-23.627-14.119-37.498c13.866-0.898,27.575,4.195,37.498,14.119
			C234.89,351.785,239.974,365.488,239.085,379.359z"/>
	</g>
</g>
<g>
</g>
<g>
</g>
<g>
</g>
<g>
</g>
<g>
</g>
<g>
</g>
<g>
</g>
<g>
</g>
<g>
</g>
<g>
</g>
<g>
</g>
<g>
</g>
<g>
</g>
<g>
</g>
<g>
</g>
</svg>
